# xmcd CD database file
#
# Track frame offsets:
#	150
#	16741
#	47720
#	77404
#	104610
#	155867
#	180538
#	206537
#	235961
#	276550
#	317463
#
# Disc length: 4625 seconds
#
# Revision: 0
# Processed by: cddbd v1.5.1PL0 Copyright (c) Steve Scherf et al.
# Submitted via: CDex 1.51
#
DISCID=8f120f0b
DTITLE=Camaguey - Hey hey Camaguey en concierto
DYEAR=1900
DGENRE=Salsa
TTITLE0=Intro
TTITLE1=Llevala a tu vacilon
TTITLE2=Por mas que quieras
TTITLE3=Que me lo den en vida
TTITLE4=Camaquey mix  Sientate ahi - A el - Mis hijos - Lloraras
TTITLE5=Ya para que
TTITLE6=Bomba carabomba
TTITLE7=Asi son
TTITLE8=Sola vaya
TTITLE9=Como amigos, como amantes
TTITLE10=Boranda (Tema final)
EXTD=
EXTT0=
EXTT1=
EXTT2=
EXTT3=
EXTT4=
EXTT5=
EXTT6=
EXTT7=
EXTT8=
EXTT9=
EXTT10=
PLAYORDER=
